HIERARCHY
ROOT Hips
{
	OFFSET 0.00000 0.00000 0.00000
	CHANNELS 6 Xposition Yposition Zposition Zrotation Yrotation Xrotation 
	JOINT LHipJoint
	{
		OFFSET 0 0 0
		CHANNELS 3 Zrotation Yrotation Xrotation
		JOINT LeftUpLeg
		{
			OFFSET 1.52977 -1.71332 0.88991
			CHANNELS 3 Zrotation Yrotation Xrotation
			JOINT LeftLeg
			{
				OFFSET 2.23949 -6.15296 0.00000
				CHANNELS 3 Zrotation Yrotation Xrotation
				JOINT LeftFoot
				{
					OFFSET 2.68396 -7.37412 0.00000
					CHANNELS 3 Zrotation Yrotation Xrotation
					JOINT LeftToeBase
					{
						OFFSET 0.20538 -0.56428 2.52710
						CHANNELS 3 Zrotation Yrotation Xrotation
						End Site
						{
							OFFSET 0.00000 -0.00000 1.29919
						}
					}
				}
			}
		}
	}
	JOINT RHipJoint
	{
		OFFSET 0 0 0
		CHANNELS 3 Zrotation Yrotation Xrotation
		JOINT RightUpLeg
		{
			OFFSET -1.45689 -1.71333 0.88991
			CHANNELS 3 Zrotation Yrotation Xrotation
			JOINT RightLeg
			{
				OFFSET -2.36700 -6.50329 0.00000
				CHANNELS 3 Zrotation Yrotation Xrotation
				JOINT RightFoot
				{
					OFFSET -2.69814 -7.41308 0.00000
					CHANNELS 3 Zrotation Yrotation Xrotation
					JOINT RightToeBase
					{
						OFFSET -0.18734 -0.51471 2.37479
						CHANNELS 3 Zrotation Yrotation Xrotation
						End Site
						{
							OFFSET -0.00000 -0.00000 1.22113
						}
					}
				}
			}
		}
	}
	JOINT LowerBack
	{
		OFFSET 0 0 0
		CHANNELS 3 Zrotation Yrotation Xrotation
		JOINT Spine
		{
			OFFSET 0.04294 2.14638 -0.31163
			CHANNELS 3 Zrotation Yrotation Xrotation
			JOINT Spine1
			{
				OFFSET -0.00400 2.17216 0.01486
				CHANNELS 3 Zrotation Yrotation Xrotation
				JOINT Neck
				{
					OFFSET 0 0 0
					CHANNELS 3 Zrotation Yrotation Xrotation
					JOINT Neck1
					{
						OFFSET 0.03869 1.76598 0.14916
						CHANNELS 3 Zrotation Yrotation Xrotation
						JOINT Head
						{
							OFFSET -0.00760 1.75513 -0.18948
							CHANNELS 3 Zrotation Yrotation Xrotation
							End Site
							{
								OFFSET -0.00601 1.82444 -0.08310
							}
						}
					}
				}
				JOINT LeftShoulder
				{
					OFFSET 0 0 0
					CHANNELS 3 Zrotation Yrotation Xrotation
					JOINT LeftArm
					{
						OFFSET 3.73696 0.92058 0.01733
						CHANNELS 3 Zrotation Yrotation Xrotation
						JOINT LeftForeArm
						{
							OFFSET 5.22771 -0.00000 0.00000
							CHANNELS 3 Zrotation Yrotation Xrotation
							JOINT LeftHand
							{
								OFFSET 3.45251 -0.00000 0.00000
								CHANNELS 3 Zrotation Yrotation Xrotation
								JOINT LeftFingerBase
								{
									OFFSET 0 0 0
									CHANNELS 3 Zrotation Yrotation Xrotation
									JOINT LeftHandIndex1
									{
										OFFSET 0.55212 -0.00000 0.00000
										CHANNELS 3 Zrotation Yrotation Xrotation
										End Site
										{
											OFFSET 0.44513 -0.00000 0.00000
										}
									}
								}
								JOINT LThumb
								{
									OFFSET 0 0 0
									CHANNELS 3 Zrotation Yrotation Xrotation
									End Site
									{
										OFFSET 0.45193 -0.00000 0.45193
									}
								}
							}
						}
					}
				}
				JOINT RightShoulder
				{
					OFFSET 0 0 0
					CHANNELS 3 Zrotation Yrotation Xrotation
					JOINT RightArm
					{
						OFFSET -3.63819 0.83094 -0.13694
						CHANNELS 3 Zrotation Yrotation Xrotation
						JOINT RightForeArm
						{
							OFFSET -5.23980 -0.00000 -0.00000
							CHANNELS 3 Zrotation Yrotation Xrotation
							JOINT RightHand
							{
								OFFSET -3.48042 -0.00000 -0.00000
								CHANNELS 3 Zrotation Yrotation Xrotation
								JOINT RightFingerBase
								{
									OFFSET 0 0 0
									CHANNELS 3 Zrotation Yrotation Xrotation
									JOINT RightHandIndex1
									{
										OFFSET -0.61871 -0.00000 0.00000
										CHANNELS 3 Zrotation Yrotation Xrotation
										End Site
										{
											OFFSET -0.49882 -0.00000 0.00000
										}
									}
								}
								JOINT RThumb
								{
									OFFSET 0 0 0
									CHANNELS 3 Zrotation Yrotation Xrotation
									End Site
									{
										OFFSET -0.50644 -0.00000 0.50644
									}
								}
							}
						}
					}
				}
			}
		}
	}
}
MOTION
Frames: 16
Frame Time: .0083333
-39.2666 17.1051 -21.3258 0 0 0 0 0 0 -21 0 0 0 0 0 0 0 0 0 0 0 0 0 0 21 0 0 0 0 0 0 0 0 0 0 0 0 0 0 0 0 0 0 0 0 0 0 -16 0 0 21 0 0 11 0 0 0 -8 0 0 0 0 0 0 0 0 0 0 0 0 0 0 0 0 0 0 0 0 8 0 0 0 0 0 0 0 0 0 0 0 0 0 0 0 0 0
-39.2666 17.1051 -21.3258 -6.0808 46.9131 -0.1745 0.0000 0.0000 0.0000 -18.5257 2.9562 -3.9298 0.6110 5.0028 13.9166 0.8653 -3.7269 -16.7172 0.0457 1.3802 3.7956 0.0000 0.0000 0.0000 28.4641 8.3583 -7.7429 -2.1604 -9.1926 26.3996 -2.4277 0.2191 -29.4626 -1.4165 -7.5270 21.2864 3.5161 -1.2045 1.9411 0.5877 -1.5439 1.3135 -1.3391 -0.7499 0.1827 1.5910 -0.2554 -6.2459 1.2031 -0.5839 7.2520 0.0864 -0.1898 3.4420 0.0000 0.0000 0.0000 -90.8073 -3.6740 2.2822 6.3945 -10.9185 -0.6118 -0.0000 0.0000 -1.7253 21.6590 16.3704 6.3863 -7.1250 0.0000 -0.0000 -5.8817 47.4332 -0.3543 0.0000 0.0000 0.0000 92.3755 -1.1642 17.6362 -11.3860 18.8775 -1.8989 0.0000 0.0000 8.7279 -19.8062 -6.3255 2.2723 7.1250 -0.0000 -0.0000 5.8561 -36.6450 1.2085
-39.2563 17.1021 -21.3197 -6.0499 46.9339 -0.1665 0.0000 0.0000 0.0000 -18.5723 2.8685 -3.8643 0.6151 5.0195 13.9641 0.8707 -3.6720 -16.7785 0.0502 1.4454 3.9753 0.0000 0.0000 0.0000 28.5693 9.0431 -7.4565 -2.1756 -9.2226 26.4941 -2.4797 -0.3717 -29.9680 -1.4187 -7.5326 21.3032 3.5120 -1.2080 1.9704 0.5637 -1.5476 1.3268 -1.3608 -0.7515 0.1792 1.5894 -0.2446 -6.1925 1.2321 -0.5694 7.1848 0.0969 -0.1824 3.4084 -0.0000 0.0000 0.0000 -90.8016 -3.6373 2.3734 6.4338 -10.9837 -0.6192 -0.0000 0.0000 -1.7854 21.6168 16.4178 6.3905 -7.1250 0.0000 -0.0000 -5.9327 47.4772 -0.3638 -0.0000 0.0000 0.0000 92.4228 -1.1865 17.7636 -11.4223 18.9327 -1.9107 0.0000 0.0000 8.5800 -19.8441 -6.4929 2.3369 7.1250 -0.0000 -0.0000 5.8434 -36.8237 1.1802
-39.2468 17.1030 -21.3127 -6.0869 46.9573 -0.2102 0.0000 0.0000 0.0000 -18.5565 2.8046 -3.7858 0.6149 5.0186 13.9617 0.8717 -3.6326 -16.7933 0.0618 1.6044 4.4135 0.0000 0.0000 0.0000 28.6279 9.0380 -7.4207 -2.1765 -9.2245 26.5000 -2.4698 -0.5580 -29.9697 -1.3953 -7.4728 21.1239 3.4787 -1.2330 2.0792 0.6100 -1.5761 1.3166 -1.2916 -0.7672 0.1086 1.5223 -0.2483 -6.1684 1.2246 -0.5665 7.1551 0.1064 -0.1836 3.3935 -0.0000 0.0000 0.0000 -90.8891 -3.6065 3.2535 6.4095 -10.9433 -0.6146 -0.0000 0.0000 -3.4965 22.7373 15.6718 6.4586 -7.1250 0.0000 -0.0000 -4.7104 46.8446 -0.2149 -0.0000 0.0000 0.0000 92.3735 -1.2244 17.9413 -11.4555 18.9831 -1.9215 0.0000 0.0000 8.4655 -19.7668 -6.3918 2.2910 7.1250 -0.0000 -0.0000 5.8966 -36.7127 1.2071
-39.2358 17.1033 -21.3044 -6.0989 46.9885 -0.2333 0.0000 0.0000 0.0000 -18.5712 2.6950 -3.7026 0.6176 5.0294 13.9925 0.8776 -3.5397 -16.8643 0.0691 1.6965 4.6677 0.0000 0.0000 0.0000 28.5105 8.6451 -7.5089 -2.1760 -9.2234 26.4966 -2.4263 -0.1698 -29.5767 -1.3587 -7.3782 20.8409 3.4831 -1.2426 2.0916 0.6101 -1.5883 1.3226 -1.2934 -0.7732 0.1071 1.5015 -0.2447 -6.1493 1.2478 -0.5611 7.1583 0.1179 -0.1806 3.3911 -0.0000 -0.0000 0.0000 -90.8699 -3.7217 2.0915 6.3313 -10.8135 -0.5998 -0.0000 0.0000 -1.5054 21.3188 16.8550 6.4559 -7.1250 0.0000 -0.0000 -6.3193 47.8940 -0.4529 -0.0000 -0.0000 0.0000 92.4004 -1.2393 17.9826 -11.4698 19.0048 -1.9261 0.0000 0.0000 8.4452 -19.6857 -6.3041 2.2497 7.1250 -0.0000 -0.0000 5.9547 -36.6155 1.2333
-39.2246 17.1036 -21.2962 -6.0487 47.0596 -0.2256 0.0000 0.0000 0.0000 -18.6317 2.6072 -3.6009 0.6194 5.0367 14.0134 0.8750 -3.4465 -16.8512 0.0683 1.6856 4.6374 0.0000 0.0000 0.0000 28.6550 8.9359 -7.3221 -2.1751 -9.2216 26.4910 -2.4585 -0.8964 -30.0164 -1.3486 -7.3518 20.7619 3.4468 -1.2590 2.0960 0.5922 -1.6110 1.3375 -1.2911 -0.7844 0.1193 1.4445 -0.2595 -6.0592 1.3083 -0.5783 7.1559 0.1470 -0.1885 3.3731 0.0000 -0.0000 0.0000 -90.8831 -3.6587 2.3163 6.4050 -10.9360 -0.6138 -0.0000 0.0000 -1.7309 21.2968 16.9517 6.4843 -7.1250 0.0000 -0.0000 -6.3639 47.9924 -0.4716 0.0000 -0.0000 0.0000 92.4366 -1.2648 18.0302 -11.4971 19.0462 -1.9350 0.0000 0.0000 8.4056 -19.6291 -6.3415 2.2559 7.1250 -0.0000 -0.0000 6.0065 -36.6516 1.2388
-39.2153 17.1034 -21.2877 -6.1835 47.0704 -0.3371 0.0000 0.0000 0.0000 -18.5293 2.6352 -3.5734 0.6211 5.0434 14.0324 0.8660 -3.4402 -16.7614 0.0631 1.6204 4.4577 0.0000 0.0000 0.0000 28.6651 8.5984 -7.3983 -2.1756 -9.2227 26.4946 -2.4256 -0.5844 -29.7091 -1.3078 -7.2443 20.4413 3.5413 -1.2603 2.0632 0.6025 -1.6137 1.3978 -1.3348 -0.7831 0.1972 1.5089 -0.2554 -6.1904 1.2728 -0.5795 7.1818 0.1239 -0.1880 3.4073 -0.0000 0.0000 0.0000 -90.8783 -3.7796 3.0605 6.3789 -10.8926 -0.6088 -0.0000 0.0000 -3.1070 22.3707 16.1918 6.5471 -7.1250 0.0000 -0.0000 -5.1673 47.3454 -0.2998 -0.0000 0.0000 0.0000 92.4843 -1.1848 18.1077 -11.5157 19.0744 -1.9411 0.0000 0.0000 8.3312 -19.6571 -6.3226 2.2527 7.1250 -0.0000 -0.0000 5.9808 -36.6333 1.2361
-39.2050 17.1032 -21.2789 -6.2253 47.1552 -0.3778 0.0000 0.0000 0.0000 -18.4968 2.6532 -3.5499 0.6239 5.0544 14.0638 0.8673 -3.5423 -16.7610 0.0713 1.7230 4.7408 0.0000 0.0000 0.0000 28.7093 8.5624 -7.3784 -2.1828 -9.2369 26.5393 -2.4276 -0.7170 -29.7659 -1.2894 -7.1950 20.2942 3.5450 -1.2866 2.0279 0.6169 -1.6508 1.4299 -1.3227 -0.8004 0.2484 1.5193 -0.2612 -6.2048 1.2432 -0.5865 7.1973 0.1120 -0.1922 3.4153 0.0000 -0.0000 0.0000 -90.8967 -3.8927 3.1769 6.3415 -10.8306 -0.6018 -0.0000 0.0000 -3.3657 22.7948 15.8874 6.5627 -7.1250 0.0000 -0.0000 -4.7007 47.0820 -0.2420 0.0000 -0.0000 0.0000 92.4971 -1.1394 18.1853 -11.5242 19.0873 -1.9439 0.0000 0.0000 8.2345 -19.6737 -6.3183 2.2533 7.1250 -0.0000 -0.0000 5.9664 -36.6298 1.2337
-39.1944 17.1033 -21.2705 -6.1884 47.2087 -0.3529 0.0000 0.0000 0.0000 -18.5313 2.6449 -3.5264 0.6280 5.0707 14.1103 0.8616 -3.5444 -16.7037 0.0668 1.6674 4.5874 0.0000 0.0000 0.0000 28.8353 8.7451 -7.2825 -2.1862 -9.2436 26.5603 -2.4548 -1.3113 -30.1400 -1.2850 -7.1833 20.2597 3.5124 -1.3082 1.9798 0.6073 -1.6827 1.4432 -1.3150 -0.8157 0.2880 1.4924 -0.2467 -6.1723 1.2793 -0.5668 7.2185 0.1296 -0.1815 3.4166 -0.0000 -0.0000 0.0000 -90.9132 -3.8879 3.3062 6.3769 -10.8893 -0.6084 -0.0000 0.0000 -3.4150 22.7933 15.9383 6.5825 -7.1250 0.0000 -0.0000 -4.7128 47.1360 -0.2489 -0.0000 -0.0000 0.0000 92.5374 -1.0751 18.1823 -11.5013 19.0525 -1.9364 0.0000 0.0000 8.3162 -19.6541 -6.4100 2.2833 7.1250 -0.0000 -0.0000 5.9934 -36.7252 1.2253
-39.1836 17.1020 -21.2607 -6.2497 47.2231 -0.4237 0.0000 0.0000 0.0000 -18.4864 2.6596 -3.4662 0.6294 5.0765 14.1269 0.8635 -3.5426 -16.7227 0.0692 1.6970 4.6690 0.0000 0.0000 0.0000 28.9104 8.7280 -7.2365 -2.1944 -9.2598 26.6115 -2.4604 -1.4592 -30.2276 -1.2626 -7.1227 20.0793 3.5131 -1.3006 2.0031 0.6285 -1.6714 1.4412 -1.2933 -0.8103 0.2741 1.5544 -0.2384 -6.2850 1.2381 -0.5624 7.3423 0.1053 -0.1775 3.4814 -0.0000 -0.0000 0.0000 -90.8725 -3.9120 3.8201 6.3624 -10.8653 -0.6057 -0.0000 0.0000 -3.7727 22.7096 16.2091 6.6633 -7.1250 0.0000 -0.0000 -4.8497 47.4121 -0.2893 -0.0000 -0.0000 0.0000 92.5575 -1.0423 18.1511 -11.4783 19.0177 -1.9289 0.0000 0.0000 8.3309 -19.6864 -6.3253 2.2573 7.1250 -0.0000 -0.0000 5.9565 -36.6378 1.2304
-39.1712 17.1005 -21.2512 -6.2816 47.2282 -0.4635 0.0000 0.0000 0.0000 -18.4725 2.6485 -3.3844 0.6308 5.0820 14.1426 0.8620 -3.5044 -16.7126 0.0616 1.6009 4.4039 0.0000 0.0000 0.0000 28.9457 8.6297 -7.2329 -2.2031 -9.2768 26.6651 -2.4609 -1.4840 -30.2399 -1.2426 -7.0682 19.9174 3.5480 -1.2918 1.9282 0.6155 -1.6629 1.4596 -1.3284 -0.8047 0.3340 1.5976 -0.2409 -6.2460 1.2233 -0.5681 7.3776 0.0927 -0.1793 3.4859 -0.0000 0.0000 0.0000 -90.8429 -4.0010 3.8317 6.3194 -10.7938 -0.5976 -0.0000 0.0000 -3.6893 22.7765 15.8760 6.5523 -7.1250 0.0000 -0.0000 -4.7156 47.0673 -0.2411 -0.0000 0.0000 0.0000 92.6009 -1.0648 18.1933 -11.4990 19.0491 -1.9357 0.0000 0.0000 8.3007 -19.7272 -6.3971 2.2879 7.1250 -0.0000 -0.0000 5.9306 -36.7158 1.2137
-39.1606 17.0986 -21.2420 -6.2543 47.2262 -0.4605 0.0000 0.0000 0.0000 -18.4812 2.8158 -3.3956 0.6332 5.0916 14.1699 0.8647 -3.6820 -16.7166 0.0710 1.7195 4.7310 0.0000 0.0000 0.0000 28.9442 8.6053 -7.1604 -2.2006 -9.2720 26.6499 -2.4583 -1.6010 -30.2669 -1.2224 -7.0126 19.7528 3.5297 -1.2842 1.8743 0.5899 -1.6563 1.4940 -1.3462 -0.8000 0.3995 1.6092 -0.2400 -6.2822 1.2626 -0.5727 7.4353 0.1033 -0.1787 3.5132 -0.0000 -0.0000 0.0000 -90.8598 -4.0774 3.5930 6.3681 -10.8746 -0.6068 -0.0000 0.0000 -3.3516 22.7817 15.9232 6.5728 -7.1250 0.0000 -0.0000 -4.7206 47.1183 -0.2473 -0.0000 -0.0000 0.0000 92.6580 -1.0001 18.2018 -11.4817 19.0229 -1.9300 0.0000 0.0000 8.3455 -19.7309 -6.3916 2.2864 7.1250 -0.0000 -0.0000 5.9268 -36.7103 1.2137
-39.1522 17.0979 -21.2323 -6.2746 47.2489 -0.4619 0.0000 0.0000 0.0000 -18.4542 2.8153 -3.3983 0.6359 5.1020 14.1997 0.8646 -3.7143 -16.7118 0.0720 1.7308 4.7624 0.0000 0.0000 0.0000 28.9889 8.7041 -7.0659 -2.1947 -9.2603 26.6131 -2.4588 -1.7721 -30.3340 -1.1997 -6.9496 19.5662 3.4766 -1.2892 1.8822 0.6196 -1.6625 1.4539 -1.2853 -0.8048 0.3560 1.5995 -0.2249 -6.3009 1.2616 -0.5533 7.5427 0.1058 -0.1681 3.5544 0.0000 -0.0000 0.0000 -90.9055 -3.9890 3.9494 6.4573 -11.0228 -0.6237 -0.0000 0.0000 -3.6499 22.6690 16.1705 6.6349 -7.1250 0.0000 -0.0000 -4.8799 47.3653 -0.2855 0.0000 -0.0000 0.0000 92.6393 -1.0490 18.2854 -11.4903 19.0359 -1.9328 0.0000 0.0000 8.3119 -19.7612 -6.3915 2.2902 7.1250 -0.0000 -0.0000 5.9014 -36.7119 1.2082
-39.1403 17.0966 -21.2227 -6.2970 47.2245 -0.5068 0.0000 0.0000 0.0000 -18.4384 2.8576 -3.3529 0.6384 5.1118 14.2276 0.8651 -3.6919 -16.7194 0.0752 1.7688 4.8671 0.0000 0.0000 0.0000 28.9055 8.4095 -7.0478 -2.1846 -9.2404 26.5503 -2.4331 -1.4288 -30.0506 -1.1639 -6.8486 19.2677 3.4941 -1.2951 1.8302 0.6191 -1.6729 1.4733 -1.2969 -0.8089 0.4041 1.5750 -0.1962 -6.3082 1.2909 -0.5157 7.5921 0.1216 -0.1483 3.5734 0.0000 0.0000 0.0000 -90.9224 -3.9784 4.0928 6.4959 -11.0867 -0.6311 -0.0000 0.0000 -3.6647 22.6932 16.1418 6.6313 -7.1250 0.0000 -0.0000 -4.8509 47.3382 -0.2805 0.0000 0.0000 0.0000 92.6462 -1.0416 18.3792 -11.4883 19.0329 -1.9322 0.0000 0.0000 8.3221 -19.7155 -6.3700 2.2769 7.1250 -0.0000 -0.0000 5.9373 -36.6867 1.2193
-39.1282 17.0944 -21.2132 -6.3559 47.2091 -0.5912 0.0000 0.0000 0.0000 -18.4085 2.7717 -3.2305 0.6413 5.1232 14.2602 0.8695 -3.5872 -16.7768 0.0739 1.7542 4.8270 0.0000 0.0000 0.0000 28.9450 8.4229 -6.8802 -2.1723 -9.2161 26.4738 -2.4286 -1.4738 -30.0402 -1.1325 -6.7589 19.0030 3.5068 -1.2811 1.8475 0.6403 -1.6528 1.4521 -1.2819 -0.7995 0.3738 1.5056 -0.2115 -6.1930 1.3182 -0.5296 7.6425 0.1423 -0.1557 3.5687 0.0000 -0.0000 0.0000 -90.9371 -3.9717 4.2157 6.4826 -11.0647 -0.6286 -0.0000 0.0000 -3.7779 22.7077 16.0977 6.6185 -7.1250 0.0000 -0.0000 -4.8276 47.2934 -0.2738 0.0000 -0.0000 0.0000 92.6280 -1.1789 18.5263 -11.5673 19.1525 -1.9580 0.0000 0.0000 8.1961 -19.6820 -6.4806 2.3119 7.1250 -0.0000 -0.0000 5.9782 -36.8013 1.2109
-39.1188 17.0950 -21.2052 -6.3112 47.3079 -0.5475 0.0000 0.0000 0.0000 -18.4398 2.8386 -3.2497 0.6435 5.1320 14.2855 0.8748 -3.7341 -16.8116 0.0849 1.8793 5.1723 0.0000 0.0000 0.0000 28.8978 8.3653 -6.8165 -2.1600 -9.1917 26.3969 -2.4251 -1.5362 -30.0416 -1.1043 -6.6771 18.7622 3.4831 -1.3037 1.7821 0.6110 -1.6868 1.4732 -1.3000 -0.8155 0.4302 1.5063 -0.2153 -6.2312 1.3542 -0.5389 7.6660 0.1536 -0.1583 3.5845 -0.0000 0.0000 0.0000 -90.8735 -4.0327 4.6998 6.5285 -11.1406 -0.6374 -0.0000 0.0000 -4.2880 22.8477 15.8367 6.5592 -7.1250 0.0000 -0.0000 -4.6402 47.0355 -0.2336 -0.0000 0.0000 0.0000 92.6700 -1.2101 18.6666 -11.6489 19.2760 -1.9848 0.0000 0.0000 8.0841 -19.6677 -6.5173 2.3231 7.1250 -0.0000 -0.0000 5.9946 -36.8391 1.2087
